<mxfile host="Electron" agent="Mozilla/5.0 (Windows NT 10.0; Win64; x64) AppleWebKit/537.36 (KHTML, like Gecko) draw.io/25.0.2 Chrome/128.0.6613.186 Electron/32.2.5 Safari/537.36" version="25.0.2">
  <diagram name="Page-1" id="Dl4oVYlqzYpcefwEGg33">
    <mxGraphModel dx="1024" dy="597" grid="1" gridSize="10" guides="1" tooltips="1" connect="1" arrows="1" fold="1" page="1" pageScale="1" pageWidth="850" pageHeight="1100" math="0" shadow="0">
      <root>
        <mxCell id="0" />
        <mxCell id="1" parent="0" />
        <mxCell id="ujUZu0xUHMEWgU3puu9X-70" value="Worker Nodes" style="text;align=center;verticalAlign=middle;resizable=0;points=[];autosize=1;strokeColor=none;fillColor=none;fontStyle=0;fontSize=20;fontFamily=CMU Sans Serif;" vertex="1" parent="1">
          <mxGeometry x="235.00000000000006" y="360" width="140" height="40" as="geometry" />
        </mxCell>
        <mxCell id="ujUZu0xUHMEWgU3puu9X-71" value="" style="rounded=0;whiteSpace=wrap;html=1;fontStyle=0;fontFamily=CMU Sans Serif;fillColor=#cccccc;" vertex="1" parent="1">
          <mxGeometry x="60" y="400" width="490" height="166.68" as="geometry" />
        </mxCell>
        <mxCell id="ujUZu0xUHMEWgU3puu9X-80" value="&lt;font style=&quot;font-size: 20px;&quot; color=&quot;#000000&quot;&gt;FLOps Project&lt;/font&gt;" style="rounded=0;whiteSpace=wrap;html=1;fillColor=#808080;strokeColor=#000000;fontStyle=0;fontFamily=CMU Sans Serif;strokeWidth=2;verticalAlign=top;" vertex="1" parent="1">
          <mxGeometry x="70" y="410" width="260" height="140" as="geometry" />
        </mxCell>
        <mxCell id="ujUZu0xUHMEWgU3puu9X-111" value="" style="rounded=0;whiteSpace=wrap;html=1;fontStyle=0;fontFamily=CMU Sans Serif;fillColor=#cccccc;strokeColor=#000000;" vertex="1" parent="1">
          <mxGeometry x="59.25" y="600" width="280" height="130" as="geometry" />
        </mxCell>
        <mxCell id="ujUZu0xUHMEWgU3puu9X-112" value="&lt;b style=&quot;&quot;&gt;&lt;font color=&quot;#ffffff&quot; style=&quot;font-size: 16px;&quot;&gt;L&lt;br&gt;E&lt;br&gt;G&lt;br&gt;E&lt;br&gt;N&lt;br&gt;D&lt;/font&gt;&lt;/b&gt;" style="rounded=0;whiteSpace=wrap;html=1;fillColor=#000000;strokeColor=#000000;fontStyle=0;fontFamily=CMU Sans Serif;strokeWidth=2;" vertex="1" parent="1">
          <mxGeometry x="59.25" y="600" width="20" height="130" as="geometry" />
        </mxCell>
        <mxCell id="ujUZu0xUHMEWgU3puu9X-113" value="" style="ellipse;whiteSpace=wrap;html=1;aspect=fixed;fillColor=#FF9999;strokeColor=#CC0000;strokeWidth=2;fontFamily=CMU Sans Serif;" vertex="1" parent="1">
          <mxGeometry x="89.24999999999989" y="612.09" width="26.36" height="26.36" as="geometry" />
        </mxCell>
        <mxCell id="ujUZu0xUHMEWgU3puu9X-114" value="" style="whiteSpace=wrap;html=1;aspect=fixed;fillColor=#FF99FF;strokeColor=#990099;strokeWidth=2;shape=ellipse;perimeter=ellipsePerimeter;fontFamily=CMU Sans Serif;" vertex="1" parent="1">
          <mxGeometry x="89.24999999999994" y="652.3699999999999" width="26.36" height="26.36" as="geometry" />
        </mxCell>
        <mxCell id="ujUZu0xUHMEWgU3puu9X-115" value="" style="whiteSpace=wrap;html=1;aspect=fixed;fillColor=#99CCFF;strokeColor=#004C99;strokeWidth=2;shape=ellipse;verticalAlign=middle;perimeter=ellipsePerimeter;fontFamily=CMU Sans Serif;" vertex="1" parent="1">
          <mxGeometry x="89.24999999999994" y="693.7299999999999" width="26.36" height="26.36" as="geometry" />
        </mxCell>
        <mxCell id="ujUZu0xUHMEWgU3puu9X-118" value="&lt;span style=&quot;font-size: 16px;&quot;&gt;&lt;font color=&quot;#000000&quot;&gt;Belongs to individual Learner&lt;/font&gt;&lt;/span&gt;" style="rounded=1;whiteSpace=wrap;html=1;fillColor=#FFFFFF;strokeColor=none;fontStyle=0;fontFamily=CMU Sans Serif;strokeWidth=2;verticalAlign=middle;" vertex="1" parent="1">
          <mxGeometry x="124.25" y="614.32" width="205" height="21.91" as="geometry" />
        </mxCell>
        <mxCell id="ujUZu0xUHMEWgU3puu9X-119" value="&lt;span style=&quot;font-size: 16px;&quot;&gt;&lt;font color=&quot;#000000&quot;&gt;Aggregated&lt;/font&gt;&lt;/span&gt;" style="rounded=1;whiteSpace=wrap;html=1;fillColor=#FFFFFF;strokeColor=none;fontStyle=0;fontFamily=CMU Sans Serif;strokeWidth=2;verticalAlign=middle;" vertex="1" parent="1">
          <mxGeometry x="124.25" y="654.59" width="205" height="21.91" as="geometry" />
        </mxCell>
        <mxCell id="ujUZu0xUHMEWgU3puu9X-120" value="&lt;font style=&quot;font-size: 16px;&quot; color=&quot;#000000&quot;&gt;Powered by MLflow&lt;/font&gt;" style="rounded=1;whiteSpace=wrap;html=1;fillColor=#FFFFFF;strokeColor=none;fontStyle=0;fontFamily=CMU Sans Serif;strokeWidth=2;verticalAlign=middle;" vertex="1" parent="1">
          <mxGeometry x="124.25" y="695.96" width="205" height="21.91" as="geometry" />
        </mxCell>
        <mxCell id="ujUZu0xUHMEWgU3puu9X-158" value="" style="rounded=0;whiteSpace=wrap;html=1;fontStyle=0;fontFamily=CMU Sans Serif;fillColor=#cccccc;strokeColor=#000000;" vertex="1" parent="1">
          <mxGeometry x="360.18" y="588" width="189.82" height="162" as="geometry" />
        </mxCell>
        <mxCell id="ujUZu0xUHMEWgU3puu9X-163" value="FLOps&#xa;Management" style="text;align=center;verticalAlign=middle;resizable=0;points=[];autosize=1;strokeColor=none;fillColor=none;fontStyle=0;fontSize=20;fontFamily=CMU Sans Serif;rotation=90;" vertex="1" parent="1">
          <mxGeometry x="520.0000000000001" y="635" width="130" height="60" as="geometry" />
        </mxCell>
        <mxCell id="ujUZu0xUHMEWgU3puu9X-168" value="" style="shape=actor;whiteSpace=wrap;html=1;fillColor=#f5f5f5;strokeColor=#666666;fontColor=#333333;fontStyle=0;fontFamily=CMU Sans Serif;" vertex="1" parent="1">
          <mxGeometry x="620" y="471.48" width="53.92" height="63.44" as="geometry" />
        </mxCell>
        <mxCell id="ujUZu0xUHMEWgU3puu9X-172" value="&lt;font color=&quot;#ff66ff&quot; style=&quot;font-size: 40px;&quot;&gt;&lt;b style=&quot;&quot;&gt;M A&lt;/b&gt;&lt;/font&gt;" style="rounded=0;whiteSpace=wrap;html=1;fillColor=#FFFFFF;strokeColor=#0066CC;fontStyle=0;fontFamily=CMU Sans Serif;strokeWidth=4;verticalAlign=middle;" vertex="1" parent="1">
          <mxGeometry x="224.25" y="466.99999999999994" width="95.5" height="54.16" as="geometry" />
        </mxCell>
        <mxCell id="ujUZu0xUHMEWgU3puu9X-175" style="edgeStyle=orthogonalEdgeStyle;rounded=0;orthogonalLoop=1;jettySize=auto;html=1;entryX=0;entryY=0.325;entryDx=0;entryDy=0;entryPerimeter=0;exitX=1.01;exitY=0.322;exitDx=0;exitDy=0;exitPerimeter=0;strokeColor=#000000;strokeWidth=2;" edge="1" parent="1" source="ujUZu0xUHMEWgU3puu9X-173" target="ujUZu0xUHMEWgU3puu9X-172">
          <mxGeometry relative="1" as="geometry" />
        </mxCell>
        <mxCell id="ujUZu0xUHMEWgU3puu9X-173" value="&lt;span style=&quot;font-size: 40px;&quot;&gt;&lt;b style=&quot;&quot;&gt;&lt;font color=&quot;#ff0000&quot;&gt;D M&lt;/font&gt;&lt;/b&gt;&lt;/span&gt;" style="rounded=0;whiteSpace=wrap;html=1;fillColor=#FFFFFF;strokeColor=#000000;fontStyle=0;fontFamily=CMU Sans Serif;strokeWidth=2;verticalAlign=middle;" vertex="1" parent="1">
          <mxGeometry x="79.25" y="466.99999999999994" width="95.5" height="54.16" as="geometry" />
        </mxCell>
        <mxCell id="ujUZu0xUHMEWgU3puu9X-177" value="P" style="text;align=center;verticalAlign=middle;resizable=0;points=[];autosize=1;strokeColor=none;fillColor=none;fontStyle=1;fontSize=40;fontFamily=CMU Sans Serif;fontColor=#FF0000;" vertex="1" parent="1">
          <mxGeometry x="174.25000000000006" y="430" width="50" height="60" as="geometry" />
        </mxCell>
        <mxCell id="ujUZu0xUHMEWgU3puu9X-180" value="" style="group" vertex="1" connectable="0" parent="1">
          <mxGeometry x="385" y="408" width="150" height="142" as="geometry" />
        </mxCell>
        <mxCell id="ujUZu0xUHMEWgU3puu9X-166" value="&lt;font style=&quot;font-size: 20px;&quot; color=&quot;#000000&quot;&gt;FLOps&lt;br&gt;Observatory&lt;/font&gt;" style="rounded=0;whiteSpace=wrap;html=1;fillColor=#808080;strokeColor=#000000;fontStyle=0;fontFamily=CMU Sans Serif;strokeWidth=2;verticalAlign=top;" vertex="1" parent="ujUZu0xUHMEWgU3puu9X-180">
          <mxGeometry width="150" height="142" as="geometry" />
        </mxCell>
        <mxCell id="ujUZu0xUHMEWgU3puu9X-167" value="&lt;font color=&quot;#ffffff&quot; style=&quot;font-size: 20px;&quot;&gt;&lt;b style=&quot;&quot;&gt;Tracking&lt;br&gt;Server/GUI&lt;/b&gt;&lt;/font&gt;" style="rounded=0;whiteSpace=wrap;html=1;fillColor=#66B2FF;strokeColor=#0066CC;fontStyle=0;fontFamily=CMU Sans Serif;strokeWidth=3;verticalAlign=middle;" vertex="1" parent="ujUZu0xUHMEWgU3puu9X-180">
          <mxGeometry x="10" y="57.839999999999975" width="130" height="74.72" as="geometry" />
        </mxCell>
        <mxCell id="ujUZu0xUHMEWgU3puu9X-182" value="" style="group" vertex="1" connectable="0" parent="1">
          <mxGeometry x="460" y="610.41" width="90" height="139.59000000000003" as="geometry" />
        </mxCell>
        <mxCell id="ujUZu0xUHMEWgU3puu9X-160" value="&lt;b&gt;&lt;font style=&quot;font-size: 40px;&quot; color=&quot;#ff66ff&quot;&gt;M&lt;/font&gt;&lt;/b&gt;" style="rounded=0;whiteSpace=wrap;html=1;fillColor=#FFFFFF;strokeColor=#0066CC;fontStyle=0;fontFamily=CMU Sans Serif;strokeWidth=4;shape=cylinder3;boundedLbl=1;backgroundOutline=1;size=15;" vertex="1" parent="ujUZu0xUHMEWgU3puu9X-182">
          <mxGeometry x="15" width="60" height="85.55" as="geometry" />
        </mxCell>
        <mxCell id="ujUZu0xUHMEWgU3puu9X-162" value="Artifact&#xa;Store" style="text;align=center;verticalAlign=middle;resizable=0;points=[];autosize=1;strokeColor=none;fillColor=none;fontStyle=0;fontSize=20;fontFamily=CMU Sans Serif;fontColor=#000000;" vertex="1" parent="ujUZu0xUHMEWgU3puu9X-182">
          <mxGeometry y="79.59000000000003" width="90" height="60" as="geometry" />
        </mxCell>
        <mxCell id="ujUZu0xUHMEWgU3puu9X-183" style="edgeStyle=orthogonalEdgeStyle;rounded=0;orthogonalLoop=1;jettySize=auto;html=1;entryX=0.851;entryY=1.016;entryDx=0;entryDy=0;entryPerimeter=0;strokeWidth=3;startArrow=classic;startFill=1;strokeColor=#0066CC;" edge="1" parent="1" source="ujUZu0xUHMEWgU3puu9X-160" target="ujUZu0xUHMEWgU3puu9X-167">
          <mxGeometry relative="1" as="geometry" />
        </mxCell>
        <mxCell id="ujUZu0xUHMEWgU3puu9X-185" style="rounded=0;orthogonalLoop=1;jettySize=auto;html=1;strokeWidth=3;startArrow=classic;startFill=1;strokeColor=#0066CC;entryX=0.127;entryY=1.011;entryDx=0;entryDy=0;entryPerimeter=0;" edge="1" parent="1" source="ujUZu0xUHMEWgU3puu9X-159" target="ujUZu0xUHMEWgU3puu9X-167">
          <mxGeometry relative="1" as="geometry" />
        </mxCell>
        <mxCell id="ujUZu0xUHMEWgU3puu9X-169" style="rounded=0;orthogonalLoop=1;jettySize=auto;html=1;strokeWidth=4;startArrow=classic;startFill=1;strokeColor=#0066CC;fontFamily=CMU Sans Serif;exitX=1;exitY=0.5;exitDx=0;exitDy=0;" edge="1" parent="1" source="ujUZu0xUHMEWgU3puu9X-167" target="ujUZu0xUHMEWgU3puu9X-168">
          <mxGeometry relative="1" as="geometry">
            <mxPoint x="650" y="293.6495348837209" as="sourcePoint" />
            <mxPoint x="885.6837599999999" y="290.04152" as="targetPoint" />
          </mxGeometry>
        </mxCell>
        <mxCell id="ujUZu0xUHMEWgU3puu9X-170" value="&lt;b&gt;&lt;font style=&quot;font-size: 40px;&quot; color=&quot;#ff66ff&quot;&gt;M&lt;/font&gt;&lt;/b&gt;" style="edgeLabel;html=1;align=center;verticalAlign=middle;resizable=0;points=[];fontFamily=CMU Sans Serif;labelBackgroundColor=none;" vertex="1" connectable="0" parent="ujUZu0xUHMEWgU3puu9X-169">
          <mxGeometry x="0.2189" y="-1" relative="1" as="geometry">
            <mxPoint x="-5" y="-23" as="offset" />
          </mxGeometry>
        </mxCell>
        <mxCell id="ujUZu0xUHMEWgU3puu9X-171" value="&lt;b&gt;&lt;font style=&quot;font-size: 40px;&quot; color=&quot;#ff66ff&quot;&gt;A&lt;/font&gt;&lt;/b&gt;" style="edgeLabel;html=1;align=center;verticalAlign=middle;resizable=0;points=[];fontFamily=CMU Sans Serif;labelBackgroundColor=none;" vertex="1" connectable="0" parent="ujUZu0xUHMEWgU3puu9X-169">
          <mxGeometry x="0.2189" y="-1" relative="1" as="geometry">
            <mxPoint x="-5" y="26" as="offset" />
          </mxGeometry>
        </mxCell>
        <mxCell id="ujUZu0xUHMEWgU3puu9X-159" value="&lt;b&gt;&lt;font style=&quot;font-size: 40px;&quot; color=&quot;#ff66ff&quot;&gt;A&lt;/font&gt;&lt;/b&gt;" style="rounded=0;whiteSpace=wrap;html=1;fillColor=#FFFFFF;strokeColor=#0066CC;fontStyle=0;fontFamily=CMU Sans Serif;strokeWidth=4;shape=cylinder3;boundedLbl=1;backgroundOutline=1;size=15;" vertex="1" parent="1">
          <mxGeometry x="380" y="608.18" width="60" height="85.55" as="geometry" />
        </mxCell>
        <mxCell id="ujUZu0xUHMEWgU3puu9X-161" value="Backend&#xa;Store" style="text;align=center;verticalAlign=middle;resizable=0;points=[];autosize=1;strokeColor=none;fillColor=none;fontStyle=0;fontSize=20;fontFamily=CMU Sans Serif;fontColor=#000000;" vertex="1" parent="1">
          <mxGeometry x="365" y="690" width="90" height="60" as="geometry" />
        </mxCell>
        <mxCell id="ujUZu0xUHMEWgU3puu9X-187" value="Learners" style="text;align=center;verticalAlign=middle;resizable=0;points=[];autosize=1;strokeColor=none;fillColor=none;fontStyle=0;fontSize=20;fontFamily=CMU Sans Serif;fontColor=#000000;" vertex="1" parent="1">
          <mxGeometry x="82" y="510" width="90" height="40" as="geometry" />
        </mxCell>
        <mxCell id="ujUZu0xUHMEWgU3puu9X-188" value="Aggregator" style="text;align=center;verticalAlign=middle;resizable=0;points=[];autosize=1;strokeColor=none;fillColor=none;fontStyle=0;fontSize=20;fontFamily=CMU Sans Serif;fontColor=#000000;" vertex="1" parent="1">
          <mxGeometry x="212" y="510" width="120" height="40" as="geometry" />
        </mxCell>
        <mxCell id="ujUZu0xUHMEWgU3puu9X-189" style="rounded=0;orthogonalLoop=1;jettySize=auto;html=1;strokeColor=#000000;entryX=0.021;entryY=0.483;entryDx=0;entryDy=0;entryPerimeter=0;exitX=0.951;exitY=0.481;exitDx=0;exitDy=0;exitPerimeter=0;strokeWidth=2;" edge="1" parent="1">
          <mxGeometry relative="1" as="geometry">
            <mxPoint x="222.04999999999995" y="509.8599999999999" as="sourcePoint" />
            <mxPoint x="175.54999999999995" y="509.98" as="targetPoint" />
          </mxGeometry>
        </mxCell>
        <mxCell id="ujUZu0xUHMEWgU3puu9X-191" style="rounded=0;orthogonalLoop=1;jettySize=auto;html=1;exitX=1.013;exitY=0.311;exitDx=0;exitDy=0;entryX=0;entryY=0.25;entryDx=0;entryDy=0;strokeWidth=3;strokeColor=#007FFF;exitPerimeter=0;" edge="1" parent="1" source="ujUZu0xUHMEWgU3puu9X-172" target="ujUZu0xUHMEWgU3puu9X-167">
          <mxGeometry relative="1" as="geometry" />
        </mxCell>
        <mxCell id="ujUZu0xUHMEWgU3puu9X-193" value="A" style="text;align=center;verticalAlign=middle;resizable=0;points=[];autosize=1;strokeColor=none;fillColor=none;fontStyle=1;fontSize=40;fontFamily=CMU Sans Serif;fontColor=#FF00FF;" vertex="1" parent="1">
          <mxGeometry x="334.00000000000006" y="430" width="50" height="60" as="geometry" />
        </mxCell>
        <mxCell id="ujUZu0xUHMEWgU3puu9X-194" style="rounded=0;orthogonalLoop=1;jettySize=auto;html=1;entryX=1;entryY=0.75;entryDx=0;entryDy=0;strokeWidth=3;strokeColor=#007FFF;" edge="1" parent="1" target="ujUZu0xUHMEWgU3puu9X-172">
          <mxGeometry relative="1" as="geometry">
            <mxPoint x="397" y="508" as="sourcePoint" />
          </mxGeometry>
        </mxCell>
        <mxCell id="ujUZu0xUHMEWgU3puu9X-195" value="M" style="text;align=center;verticalAlign=middle;resizable=0;points=[];autosize=1;strokeColor=none;fillColor=none;fontStyle=1;fontSize=40;fontFamily=CMU Sans Serif;fontColor=#FF00FF;" vertex="1" parent="1">
          <mxGeometry x="329.00000000000006" y="494" width="60" height="60" as="geometry" />
        </mxCell>
        <mxCell id="ujUZu0xUHMEWgU3puu9X-196" value="P" style="text;align=center;verticalAlign=middle;resizable=0;points=[];autosize=1;strokeColor=none;fillColor=none;fontStyle=1;fontSize=40;fontFamily=CMU Sans Serif;fontColor=#FF33FF;" vertex="1" parent="1">
          <mxGeometry x="175.00000000000006" y="494" width="50" height="60" as="geometry" />
        </mxCell>
      </root>
    </mxGraphModel>
  </diagram>
</mxfile>
